2.6Hz3min_grf.mot
version=1
nRows=25
nColumns 19
inDegrees=yes
endheader
time	1_ground_force_vx	1_ground_force_vy	1_ground_force_vz	1_ground_force_px	1_ground_force_py	1_ground_force_pz	1_ground_torque_x	1_ground_torque_y	1_ground_torque_z	2_ground_force_vx	2_ground_force_vy	2_ground_force_vz	2_ground_force_px	2_ground_force_py	2_ground_force_pz	2_ground_torque_x	2_ground_torque_y	2_ground_torque_z
            1.252500	           -4.083119	          433.543326	          -41.374257	           -0.195560	            0.006007	           -0.353314	           -0.020737	            2.201826	           -0.210126	           -2.232396	          418.875722	           69.682327	           -0.214490	            0.005834	           -0.732632	            0.021134	           -3.965539	           -0.659690
            1.253000	           -3.668086	          430.115242	          -40.656272	           -0.195557	            0.006004	           -0.352754	           -0.019297	            2.262694	           -0.213879	           -2.029230	          414.458345	           69.244117	           -0.214481	            0.005835	           -0.732919	            0.019358	           -3.953672	           -0.660545
            1.253500	           -3.252888	          425.785800	          -39.942153	           -0.195538	            0.006005	           -0.352873	           -0.017161	            2.246251	           -0.210717	           -1.632786	          408.385093	           68.565281	           -0.214091	            0.005835	           -0.732395	            0.016051	           -4.014676	           -0.674039
            1.254000	           -2.882816	          421.274873	          -38.953557	           -0.195574	            0.006003	           -0.352429	           -0.014630	            2.137973	           -0.197690	           -1.754350	          403.046666	           67.889293	           -0.213856	            0.005835	           -0.732401	            0.017356	           -3.987323	           -0.671626
            1.254500	           -2.651053	          416.044491	          -38.334559	           -0.195680	            0.006003	           -0.352500	           -0.013239	            2.077602	           -0.191431	           -1.365882	          399.183224	           67.218342	           -0.213904	            0.005836	           -0.732746	            0.013728	           -4.012158	           -0.675606
            1.255000	           -2.235610	          410.993790	          -37.577671	           -0.195369	            0.006005	           -0.352879	           -0.011155	            2.050822	           -0.187509	           -1.623343	          392.555243	           66.537814	           -0.214093	            0.005836	           -0.732710	            0.016301	           -3.941955	           -0.668158
            1.255500	           -2.141343	          405.583085	          -36.959105	           -0.195460	            0.006006	           -0.353049	           -0.010776	            2.041094	           -0.185996	           -1.424891	          389.427415	           65.963427	           -0.213842	            0.005837	           -0.732964	            0.014505	           -3.964353	           -0.671505
            1.256000	           -1.680922	          402.155736	          -36.424658	           -0.195549	            0.006005	           -0.352839	           -0.008706	            2.082813	           -0.188648	           -1.259895	          382.615583	           65.610567	           -0.213812	            0.005836	           -0.732598	            0.013239	           -4.020450	           -0.689423
            1.256500	           -1.173304	          396.924030	          -35.485355	           -0.195512	            0.006005	           -0.352787	           -0.006324	            2.139362	           -0.191261	           -1.196779	          378.014897	           64.796335	           -0.213606	            0.005836	           -0.732413	            0.012599	           -3.979640	           -0.682159
            1.257000	           -0.758204	          393.135355	          -34.768917	           -0.195550	            0.006004	           -0.352639	           -0.004028	            2.088683	           -0.184723	           -1.228610	          373.781484	           64.171177	           -0.213570	            0.005837	           -0.732621	            0.013251	           -4.031240	           -0.692087
            1.257500	           -0.387855	          387.722934	          -33.738326	           -0.195197	            0.006005	           -0.352862	           -0.002041	            2.040708	           -0.177575	           -1.302618	          368.258689	           63.588368	           -0.213341	            0.005838	           -0.732734	            0.014179	           -4.008546	           -0.692168
            1.258000	           -0.247975	          383.574128	          -33.114463	           -0.195268	            0.006004	           -0.352523	           -0.001304	            2.016431	           -0.174081	           -0.959711	          364.027132	           62.822266	           -0.213711	            0.005838	           -0.733066	            0.010752	           -4.078460	           -0.703843
            1.258500	            0.028508	          378.886290	          -32.905967	           -0.195024	            0.006004	           -0.352510	            0.000148	            1.969518	           -0.171051	           -0.943363	          359.425608	           62.195774	           -0.213011	            0.005840	           -0.732928	            0.010622	           -4.047211	           -0.700338
            1.259000	            0.260430	          375.277482	          -32.096589	           -0.195134	            0.006002	           -0.352097	            0.001375	            1.980784	           -0.169412	           -0.924212	          354.086349	           61.895151	           -0.213039	            0.005839	           -0.732682	            0.010459	           -4.007160	           -0.700461
            1.259500	            0.675385	          370.407802	          -31.522352	           -0.195084	            0.006004	           -0.352536	            0.003707	            2.032954	           -0.173008	           -0.859041	          348.932677	           61.219740	           -0.212905	            0.005841	           -0.732914	            0.009888	           -4.016391	           -0.704670
            1.260000	            1.457489	          366.438569	          -30.715885	           -0.195028	            0.006001	           -0.351842	            0.008392	            2.109824	           -0.176851	           -0.750404	          344.700442	           60.406810	           -0.212987	            0.005840	           -0.732878	            0.008788	           -4.036715	           -0.707411
            1.260500	            1.734865	          362.470025	          -30.091590	           -0.194909	            0.006002	           -0.352096	            0.009796	            2.046712	           -0.169914	           -0.637657	          339.362358	           59.871507	           -0.212728	            0.005841	           -0.732735	            0.007575	           -4.031533	           -0.711257
            1.261000	            1.875026	          356.158228	          -29.522858	           -0.194658	            0.006003	           -0.352476	            0.010296	            1.955693	           -0.162112	           -0.621206	          334.759935	           59.479655	           -0.212499	            0.005841	           -0.732582	            0.007488	           -4.035029	           -0.716938
            1.261500	            2.014675	          353.271251	          -28.893584	           -0.194891	            0.006001	           -0.352023	            0.010509	            1.842823	           -0.150722	           -0.423501	          331.816917	           58.718213	           -0.212385	            0.005843	           -0.733106	            0.005160	           -4.042970	           -0.715443
            1.262000	            2.383689	          348.942390	          -28.316918	           -0.194801	            0.006003	           -0.352285	            0.012721	            1.862207	           -0.151119	           -0.354281	          325.557899	           58.179644	           -0.212327	            0.005841	           -0.732560	            0.004403	           -4.045594	           -0.722978
            1.262500	            2.522577	          344.615057	          -28.106531	           -0.194576	            0.006002	           -0.352112	            0.013471	            1.840319	           -0.150095	           -0.057457	          321.141196	           57.647546	           -0.212216	            0.005842	           -0.732700	            0.000725	           -4.049556	           -0.726929
            1.263000	            2.525610	          340.464984	          -27.207191	           -0.194713	            0.006001	           -0.352019	            0.013874	            1.870268	           -0.149457	           -0.230543	          317.091751	           56.929249	           -0.212233	            0.005843	           -0.733003	            0.002976	           -4.092643	           -0.734775
            1.263500	            2.895274	          336.315239	          -26.354617	           -0.194593	            0.006001	           -0.351869	            0.016027	            1.861649	           -0.145884	           -0.260318	          312.305414	           56.442904	           -0.212056	            0.005843	           -0.732721	            0.003376	           -4.049930	           -0.731943
            1.264000	            3.263979	          331.806672	          -25.916292	           -0.194632	            0.006003	           -0.352323	            0.018862	            1.917465	           -0.149767	           -0.060497	          308.808969	           55.961059	           -0.212059	            0.005844	           -0.732985	            0.000795	           -4.059338	           -0.735616
            1.264500	            3.357983	          327.838092	          -25.291542	           -0.194583	            0.006002	           -0.352213	            0.018643	            1.820068	           -0.140412	            0.090337	          305.865949	           55.152709	           -0.211996	            0.005847	           -0.733741	           -0.001201	           -4.066403	           -0.733240
